<svg width="175" height="40" viewBox="0 0 175 40" fill="none" xmlns="http://www.w3.org/2000/svg">
<g clip-path="url(#clip0_1_166)">
<path d="M43.5181 29.2C43.4651 29.0956 43.4157 29.009 43.3698 28.9396C42.6108 27.6897 41.1602 26.1555 39.0191 24.3366L38.9738 24.295L38.9512 24.2746L38.9283 24.2536H38.9053C37.9335 23.4067 37.3182 22.8372 37.0605 22.5456C36.5889 21.9902 36.4833 21.428 36.741 20.8584C36.9231 20.428 37.607 19.5191 38.7911 18.1305C39.414 17.3945 39.9073 16.8047 40.2716 16.3603C42.899 13.1668 44.038 11.1261 43.6886 10.2374L43.5529 10.0297C43.4617 9.90467 43.2263 9.7903 42.8471 9.68598C42.467 9.58189 41.9812 9.56468 41.3888 9.63405L34.8287 9.67548C34.7224 9.64105 34.5707 9.64426 34.373 9.68598C34.1755 9.72771 34.0767 9.74864 34.0767 9.74864L33.9625 9.8008L33.8719 9.86346C33.796 9.90489 33.7124 9.97776 33.6212 10.0819C33.5305 10.1857 33.4546 10.3075 33.394 10.4464C32.6798 12.1264 31.8677 13.6883 30.9564 15.1322C30.3945 15.9932 29.8784 16.7393 29.4071 17.3711C28.9365 18.0027 28.5416 18.468 28.223 18.7663C27.9039 19.0648 27.6158 19.304 27.3572 19.4847C27.0989 19.6655 26.9018 19.7418 26.7653 19.7139C26.6284 19.6859 26.4996 19.6582 26.3776 19.6305C26.1651 19.5055 25.9942 19.3354 25.8654 19.1203C25.736 18.9051 25.6488 18.6342 25.6033 18.3079C25.558 17.9814 25.5312 17.7006 25.5235 17.4645C25.5164 17.2286 25.5197 16.8951 25.5351 16.4647C25.5509 16.0341 25.558 15.7428 25.558 15.59C25.558 15.0623 25.5692 14.4896 25.5918 13.8718C25.6148 13.2539 25.6334 12.7644 25.6489 12.4038C25.6644 12.0428 25.6716 11.6608 25.6716 11.2582C25.6716 10.8555 25.6448 10.5397 25.5918 10.3105C25.5395 10.0816 25.4591 9.85945 25.3533 9.64404C25.2467 9.42885 25.0908 9.26239 24.8863 9.14422C24.6813 9.0262 24.4265 8.93253 24.1232 8.86294C23.3183 8.69641 22.2933 8.60632 21.0478 8.59232C18.2234 8.5646 16.4085 8.73135 15.6037 9.09236C15.2848 9.24488 14.9962 9.45329 14.7382 9.71691C14.4648 10.0225 14.4266 10.1892 14.624 10.2167C15.5353 10.3415 16.1804 10.64 16.5601 11.1121L16.697 11.3622C16.8034 11.5427 16.9097 11.8622 17.016 12.3202C17.1222 12.7783 17.1907 13.2851 17.2209 13.8402C17.2967 14.8539 17.2967 15.7217 17.2209 16.4435C17.1449 17.1657 17.0731 17.7279 17.0045 18.1305C16.936 18.5332 16.8336 18.8595 16.697 19.1093C16.5601 19.3592 16.4691 19.512 16.4235 19.5674C16.3779 19.6229 16.3399 19.6578 16.3098 19.6715C16.1124 19.7407 15.9071 19.7759 15.6946 19.7759C15.4819 19.7759 15.2238 19.6786 14.9202 19.4841C14.6166 19.2896 14.3015 19.0225 13.975 18.6823C13.6484 18.342 13.2801 17.8665 12.87 17.2556C12.4601 16.6448 12.0349 15.9229 11.5945 15.0898L11.2301 14.4857C11.0023 14.097 10.6912 13.5311 10.2963 12.7885C9.90123 12.0455 9.55202 11.3269 9.24844 10.6327C9.12709 10.3411 8.94479 10.1191 8.70184 9.96639L8.58783 9.90372C8.51204 9.84829 8.39037 9.78942 8.22346 9.72669C8.05631 9.66403 7.88191 9.61909 7.69952 9.59145L1.45813 9.63288C0.820335 9.63288 0.387589 9.76498 0.159727 10.0288L0.0685342 10.1536C0.0229777 10.2232 0 10.3342 0 10.487C0 10.6397 0.0455565 10.8272 0.136749 11.0492C1.04788 13.007 2.03871 14.8952 3.10925 16.714C4.17979 18.5328 5.11006 19.9979 5.89952 21.108C6.68914 22.2189 7.494 23.2673 8.3141 24.2528C9.13419 25.2387 9.67704 25.8704 9.94264 26.148C10.2086 26.4261 10.4174 26.634 10.5693 26.7728L11.1388 27.2725C11.5033 27.6058 12.0385 28.005 12.7446 28.47C13.451 28.9353 14.2329 29.3934 15.0909 29.845C15.9491 30.2959 16.9474 30.6638 18.0865 30.9484C19.2254 31.2332 20.3339 31.3475 21.4122 31.2924H24.0318C24.5631 31.2504 24.9656 31.0977 25.2392 30.8341L25.3298 30.7297C25.3907 30.6468 25.4478 30.5181 25.5005 30.3448C25.5537 30.1713 25.5802 29.9801 25.5802 29.7721C25.5647 29.1752 25.6144 28.6373 25.728 28.1583C25.8415 27.6795 25.9709 27.3185 26.1157 27.0754C26.2603 26.8324 26.4235 26.6275 26.6052 26.4613C26.7873 26.2948 26.917 26.1939 26.9931 26.1592C27.0688 26.1242 27.1292 26.1005 27.1747 26.0863C27.5392 25.9753 27.9681 26.0828 28.4621 26.4094C28.9557 26.7356 29.4187 27.1385 29.8518 27.6173C30.2846 28.0966 30.8046 28.6343 31.4119 29.2312C32.0197 29.8283 32.551 30.2722 33.0064 30.5642L33.4618 30.8141C33.766 30.9808 34.1608 31.1336 34.6469 31.2724C35.132 31.4111 35.5571 31.4459 35.9221 31.3765L41.7533 31.2933C42.33 31.2933 42.7788 31.206 43.0971 31.0328C43.4161 30.8592 43.6056 30.668 43.6667 30.4601C43.7277 30.2519 43.7309 30.0157 43.6783 29.7516C43.6243 29.4882 43.571 29.304 43.5181 29.2Z" fill="white"/>
</g>
<g clip-path="url(#clip1_1_166)">
<path d="M109.143 29.2C109.09 29.0956 109.041 29.009 108.995 28.9396C108.236 27.6897 106.785 26.1555 104.644 24.3366L104.599 24.295L104.576 24.2746L104.553 24.2536H104.53C103.559 23.4067 102.943 22.8372 102.685 22.5456C102.214 21.9902 102.108 21.428 102.366 20.8584C102.548 20.428 103.232 19.5191 104.416 18.1305C105.039 17.3945 105.532 16.8047 105.897 16.3603C108.524 13.1668 109.663 11.1261 109.314 10.2374L109.178 10.0297C109.087 9.90467 108.851 9.7903 108.472 9.68598C108.092 9.58189 107.606 9.56468 107.014 9.63405L100.454 9.67548C100.347 9.64105 100.196 9.64426 99.998 9.68598C99.8005 9.72771 99.7017 9.74864 99.7017 9.74864L99.5875 9.8008L99.4969 9.86346C99.421 9.90489 99.3374 9.97776 99.2462 10.0819C99.1555 10.1857 99.0796 10.3075 99.019 10.4464C98.3048 12.1264 97.4927 13.6883 96.5814 15.1322C96.0195 15.9932 95.5034 16.7393 95.0321 17.3711C94.5615 18.0027 94.1666 18.468 93.848 18.7663C93.5289 19.0648 93.2408 19.304 92.9822 19.4847C92.7239 19.6655 92.5268 19.7418 92.3903 19.7139C92.2534 19.6859 92.1246 19.6582 92.0026 19.6305C91.7901 19.5055 91.6192 19.3354 91.4904 19.1203C91.361 18.9051 91.2738 18.6342 91.2283 18.3079C91.183 17.9814 91.1562 17.7006 91.1485 17.4645C91.1414 17.2286 91.1447 16.8951 91.1601 16.4647C91.1759 16.0341 91.183 15.7428 91.183 15.59C91.183 15.0623 91.1942 14.4896 91.2168 13.8718C91.2398 13.2539 91.2584 12.7644 91.2739 12.4038C91.2894 12.0428 91.2966 11.6608 91.2966 11.2582C91.2966 10.8555 91.2698 10.5397 91.2168 10.3105C91.1645 10.0816 91.0841 9.85945 90.9783 9.64404C90.8717 9.42885 90.7158 9.26239 90.5113 9.14422C90.3063 9.0262 90.0515 8.93253 89.7482 8.86294C88.9433 8.69641 87.9183 8.60632 86.6728 8.59232C83.8484 8.5646 82.0335 8.73135 81.2287 9.09236C80.9098 9.24488 80.6212 9.45329 80.3632 9.71691C80.0898 10.0225 80.0516 10.1892 80.249 10.2167C81.1603 10.3415 81.8054 10.64 82.1851 11.1121L82.322 11.3622C82.4284 11.5427 82.5347 11.8622 82.641 12.3202C82.7472 12.7783 82.8157 13.2851 82.8459 13.8402C82.9217 14.8539 82.9217 15.7217 82.8459 16.4435C82.7699 17.1657 82.6981 17.7279 82.6295 18.1305C82.561 18.5332 82.4586 18.8595 82.322 19.1093C82.1851 19.3592 82.0941 19.512 82.0485 19.5674C82.0029 19.6229 81.9649 19.6578 81.9348 19.6715C81.7374 19.7407 81.5321 19.7759 81.3196 19.7759C81.1069 19.7759 80.8488 19.6786 80.5452 19.4841C80.2416 19.2896 79.9265 19.0225 79.6 18.6823C79.2734 18.342 78.9051 17.8665 78.495 17.2556C78.0851 16.6448 77.6599 15.9229 77.2195 15.0898L76.8551 14.4857C76.6273 14.097 76.3162 13.5311 75.9213 12.7885C75.5262 12.0455 75.177 11.3269 74.8734 10.6327C74.7521 10.3411 74.5698 10.1191 74.3268 9.96639L74.2128 9.90372C74.137 9.84829 74.0154 9.78942 73.8485 9.72669C73.6813 9.66403 73.5069 9.61909 73.3245 9.59145L67.0831 9.63288C66.4453 9.63288 66.0126 9.76498 65.7847 10.0288L65.6935 10.1536C65.648 10.2232 65.625 10.3342 65.625 10.487C65.625 10.6397 65.6706 10.8272 65.7617 11.0492C66.6729 13.007 67.6637 14.8952 68.7342 16.714C69.8048 18.5328 70.7351 19.9979 71.5245 21.108C72.3141 22.2189 73.119 23.2673 73.9391 24.2528C74.7592 25.2387 75.302 25.8704 75.5676 26.148C75.8336 26.4261 76.0424 26.634 76.1943 26.7728L76.7638 27.2725C77.1283 27.6058 77.6635 28.005 78.3696 28.47C79.076 28.9353 79.8579 29.3934 80.7159 29.845C81.5741 30.2959 82.5724 30.6638 83.7115 30.9484C84.8504 31.2332 85.9589 31.3475 87.0372 31.2924H89.6568C90.1881 31.2504 90.5906 31.0977 90.8642 30.8341L90.9548 30.7297C91.0157 30.6468 91.0728 30.5181 91.1255 30.3448C91.1787 30.1713 91.2052 29.9801 91.2052 29.7721C91.1897 29.1752 91.2394 28.6373 91.353 28.1583C91.4665 27.6795 91.5959 27.3185 91.7407 27.0754C91.8853 26.8324 92.0485 26.6275 92.2302 26.4613C92.4123 26.2948 92.542 26.1939 92.6181 26.1592C92.6938 26.1242 92.7542 26.1005 92.7997 26.0863C93.1642 25.9753 93.5931 26.0828 94.0871 26.4094C94.5807 26.7356 95.0437 27.1385 95.4768 27.6173C95.9096 28.0966 96.4296 28.6343 97.0369 29.2312C97.6447 29.8283 98.176 30.2722 98.6314 30.5642L99.0868 30.8141C99.391 30.9808 99.7858 31.1336 100.272 31.2724C100.757 31.4111 101.182 31.4459 101.547 31.3765L107.378 31.2933C107.955 31.2933 108.404 31.206 108.722 31.0328C109.041 30.8592 109.231 30.668 109.292 30.4601C109.353 30.2519 109.356 30.0157 109.303 29.7516C109.249 29.4882 109.196 29.304 109.143 29.2Z" fill="white"/>
</g>
<g clip-path="url(#clip2_1_166)">
<path d="M174.768 29.2C174.715 29.0956 174.666 29.009 174.62 28.9396C173.861 27.6897 172.41 26.1555 170.269 24.3366L170.224 24.295L170.201 24.2746L170.178 24.2536H170.155C169.184 23.4067 168.568 22.8372 168.31 22.5456C167.839 21.9902 167.733 21.428 167.991 20.8584C168.173 20.428 168.857 19.5191 170.041 18.1305C170.664 17.3945 171.157 16.8047 171.522 16.3603C174.149 13.1668 175.288 11.1261 174.939 10.2374L174.803 10.0297C174.712 9.90467 174.476 9.7903 174.097 9.68598C173.717 9.58189 173.231 9.56468 172.639 9.63405L166.079 9.67548C165.972 9.64105 165.821 9.64426 165.623 9.68598C165.425 9.72771 165.327 9.74864 165.327 9.74864L165.213 9.8008L165.122 9.86346C165.046 9.90489 164.962 9.97776 164.871 10.0819C164.781 10.1857 164.705 10.3075 164.644 10.4464C163.93 12.1264 163.118 13.6883 162.206 15.1322C161.644 15.9932 161.128 16.7393 160.657 17.3711C160.186 18.0027 159.792 18.468 159.473 18.7663C159.154 19.0648 158.866 19.304 158.607 19.4847C158.349 19.6655 158.152 19.7418 158.015 19.7139C157.878 19.6859 157.75 19.6582 157.628 19.6305C157.415 19.5055 157.244 19.3354 157.115 19.1203C156.986 18.9051 156.899 18.6342 156.853 18.3079C156.808 17.9814 156.781 17.7006 156.774 17.4645C156.766 17.2286 156.77 16.8951 156.785 16.4647C156.801 16.0341 156.808 15.7428 156.808 15.59C156.808 15.0623 156.819 14.4896 156.842 13.8718C156.865 13.2539 156.883 12.7644 156.899 12.4038C156.914 12.0428 156.922 11.6608 156.922 11.2582C156.922 10.8555 156.895 10.5397 156.842 10.3105C156.789 10.0816 156.709 9.85945 156.603 9.64404C156.497 9.42885 156.341 9.26239 156.136 9.14422C155.931 9.0262 155.676 8.93253 155.373 8.86294C154.568 8.69641 153.543 8.60632 152.298 8.59232C149.473 8.5646 147.659 8.73135 146.854 9.09236C146.535 9.24488 146.246 9.45329 145.988 9.71691C145.715 10.0225 145.677 10.1892 145.874 10.2167C146.785 10.3415 147.43 10.64 147.81 11.1121L147.947 11.3622C148.053 11.5427 148.16 11.8622 148.266 12.3202C148.372 12.7783 148.441 13.2851 148.471 13.8402C148.547 14.8539 148.547 15.7217 148.471 16.4435C148.395 17.1657 148.323 17.7279 148.255 18.1305C148.186 18.5332 148.084 18.8595 147.947 19.1093C147.81 19.3592 147.719 19.512 147.673 19.5674C147.628 19.6229 147.59 19.6578 147.56 19.6715C147.362 19.7407 147.157 19.7759 146.945 19.7759C146.732 19.7759 146.474 19.6786 146.17 19.4841C145.867 19.2896 145.552 19.0225 145.225 18.6823C144.898 18.342 144.53 17.8665 144.12 17.2556C143.71 16.6448 143.285 15.9229 142.844 15.0898L142.48 14.4857C142.252 14.097 141.941 13.5311 141.546 12.7885C141.151 12.0455 140.802 11.3269 140.498 10.6327C140.377 10.3411 140.195 10.1191 139.952 9.96639L139.838 9.90372C139.762 9.84829 139.64 9.78942 139.473 9.72669C139.306 9.66403 139.132 9.61909 138.95 9.59145L132.708 9.63288C132.07 9.63288 131.638 9.76498 131.41 10.0288L131.319 10.1536C131.273 10.2232 131.25 10.3342 131.25 10.487C131.25 10.6397 131.296 10.8272 131.387 11.0492C132.298 13.007 133.289 14.8952 134.359 16.714C135.43 18.5328 136.36 19.9979 137.15 21.108C137.939 22.2189 138.744 23.2673 139.564 24.2528C140.384 25.2387 140.927 25.8704 141.193 26.148C141.459 26.4261 141.667 26.634 141.819 26.7728L142.389 27.2725C142.753 27.6058 143.288 28.005 143.995 28.47C144.701 28.9353 145.483 29.3934 146.341 29.845C147.199 30.2959 148.197 30.6638 149.336 30.9484C150.475 31.2332 151.584 31.3475 152.662 31.2924H155.282C155.813 31.2504 156.216 31.0977 156.489 30.8341L156.58 30.7297C156.641 30.6468 156.698 30.5181 156.75 30.3448C156.804 30.1713 156.83 29.9801 156.83 29.7721C156.815 29.1752 156.864 28.6373 156.978 28.1583C157.092 27.6795 157.221 27.3185 157.366 27.0754C157.51 26.8324 157.674 26.6275 157.855 26.4613C158.037 26.2948 158.167 26.1939 158.243 26.1592C158.319 26.1242 158.379 26.1005 158.425 26.0863C158.789 25.9753 159.218 26.0828 159.712 26.4094C160.206 26.7356 160.669 27.1385 161.102 27.6173C161.535 28.0966 162.055 28.6343 162.662 29.2312C163.27 29.8283 163.801 30.2722 164.256 30.5642L164.712 30.8141C165.016 30.9808 165.411 31.1336 165.897 31.2724C166.382 31.4111 166.807 31.4459 167.172 31.3765L173.003 31.2933C173.58 31.2933 174.029 31.206 174.347 31.0328C174.666 30.8592 174.856 30.668 174.917 30.4601C174.978 30.2519 174.981 30.0157 174.928 29.7516C174.874 29.4882 174.821 29.304 174.768 29.2Z" fill="white"/>
</g>
<defs>
<clipPath id="clip0_1_166">
<rect width="43.75" height="40" fill="white"/>
</clipPath>
<clipPath id="clip1_1_166">
<rect width="43.75" height="40" fill="white" transform="translate(65.625)"/>
</clipPath>
<clipPath id="clip2_1_166">
<rect width="43.75" height="40" fill="white" transform="translate(131.25)"/>
</clipPath>
</defs>
</svg>
